<svg id="svg" version="1.1" width="400" height="400" viewBox="0 0 400 400" xmlns="http://www.w3.org/2000/svg" xmlns:xlink="http://www.w3.org/1999/xlink" ><g id="svgg"><path id="path0" d="" stroke="none" fill="#000000" fill-rule="evenodd"></path><path id="path1" d="" stroke="none" fill="#555555" fill-rule="evenodd"></path><path id="path2" d="M194.000 12.221 C 100.682 14.796,22.595 87.397,13.115 180.400 C 1.061 298.652,99.315 397.961,217.600 387.082 C 299.578 379.543,367.770 318.395,384.079 237.800 C 408.217 118.517,315.817 8.860,194.000 12.221 M209.800 13.002 C 285.940 17.164,351.393 66.218,376.775 138.142 C 390.657 177.478,390.657 222.522,376.775 261.858 C 353.915 326.637,297.733 373.814,230.400 384.771 C 116.265 403.345,12.800 315.490,12.800 200.000 C 12.800 99.769,90.510 18.374,191.400 12.933 C 194.300 12.777,206.513 12.823,209.800 13.002 " stroke="none" fill="#808080" fill-rule="evenodd"></path><path id="path3" d="M193.050 12.946 C 193.463 12.989,194.138 12.989,194.550 12.946 C 194.963 12.903,194.625 12.867,193.800 12.867 C 192.975 12.867,192.638 12.903,193.050 12.946 M205.450 12.946 C 205.863 12.989,206.538 12.989,206.950 12.946 C 207.363 12.903,207.025 12.867,206.200 12.867 C 205.375 12.867,205.038 12.903,205.450 12.946 M188.853 13.144 C 189.157 13.189,189.607 13.188,189.853 13.141 C 190.099 13.093,189.850 13.056,189.300 13.057 C 188.750 13.059,188.549 13.098,188.853 13.144 M210.253 13.144 C 210.557 13.189,211.007 13.188,211.253 13.141 C 211.499 13.093,211.250 13.056,210.700 13.057 C 210.150 13.059,209.949 13.098,210.253 13.144 M185.752 13.341 C 186.001 13.389,186.361 13.387,186.552 13.337 C 186.744 13.287,186.540 13.248,186.100 13.250 C 185.660 13.253,185.504 13.294,185.752 13.341 M213.552 13.341 C 213.801 13.389,214.161 13.387,214.352 13.337 C 214.544 13.287,214.340 13.248,213.900 13.250 C 213.460 13.253,213.304 13.294,213.552 13.341 M183.450 13.538 C 183.643 13.588,183.958 13.588,184.150 13.538 C 184.343 13.488,184.185 13.446,183.800 13.446 C 183.415 13.446,183.258 13.488,183.450 13.538 M215.850 13.538 C 216.043 13.588,216.357 13.588,216.550 13.538 C 216.743 13.488,216.585 13.446,216.200 13.446 C 215.815 13.446,215.657 13.488,215.850 13.538 M218.050 13.738 C 218.243 13.788,218.558 13.788,218.750 13.738 C 218.943 13.688,218.785 13.646,218.400 13.646 C 218.015 13.646,217.857 13.688,218.050 13.738 M71.800 63.500 C 71.314 63.995,70.962 64.400,71.017 64.400 C 71.072 64.400,71.514 63.995,72.000 63.500 C 72.486 63.005,72.838 62.600,72.783 62.600 C 72.728 62.600,72.286 63.005,71.800 63.500 M327.992 63.450 C 328.820 64.333,329.000 64.492,329.000 64.342 C 329.000 64.310,328.572 63.882,328.050 63.392 L 327.100 62.500 327.992 63.450 M332.400 67.700 C 332.773 68.085,333.123 68.400,333.178 68.400 C 333.233 68.400,332.973 68.085,332.600 67.700 C 332.227 67.315,331.877 67.000,331.822 67.000 C 331.767 67.000,332.027 67.315,332.400 67.700 M63.400 71.900 C 62.914 72.395,62.562 72.800,62.617 72.800 C 62.672 72.800,63.114 72.395,63.600 71.900 C 64.086 71.405,64.438 71.000,64.383 71.000 C 64.328 71.000,63.886 71.405,63.400 71.900 M336.392 71.850 C 337.220 72.733,337.400 72.892,337.400 72.742 C 337.400 72.710,336.973 72.282,336.450 71.792 L 335.500 70.900 336.392 71.850 M386.446 183.600 C 386.446 183.985,386.488 184.143,386.538 183.950 C 386.588 183.758,386.588 183.442,386.538 183.250 C 386.488 183.058,386.446 183.215,386.446 183.600 M13.446 183.800 C 13.446 184.185,13.488 184.343,13.538 184.150 C 13.588 183.958,13.588 183.643,13.538 183.450 C 13.488 183.258,13.446 183.415,13.446 183.800 M13.250 186.100 C 13.253 186.540,13.294 186.696,13.341 186.448 C 13.389 186.199,13.387 185.839,13.337 185.648 C 13.287 185.456,13.248 185.660,13.250 186.100 M386.654 186.200 C 386.654 186.695,386.693 186.898,386.741 186.650 C 386.789 186.403,386.789 185.998,386.741 185.750 C 386.693 185.503,386.654 185.705,386.654 186.200 M13.057 189.300 C 13.059 189.850,13.098 190.051,13.144 189.747 C 13.189 189.443,13.188 188.993,13.141 188.747 C 13.093 188.501,13.056 188.750,13.057 189.300 M386.857 189.300 C 386.859 189.850,386.898 190.051,386.944 189.747 C 386.989 189.443,386.988 188.993,386.941 188.747 C 386.893 188.501,386.856 188.750,386.857 189.300 M12.870 193.800 C 12.870 194.735,12.904 195.118,12.946 194.650 C 12.989 194.183,12.989 193.418,12.946 192.950 C 12.904 192.483,12.870 192.865,12.870 193.800 M387.069 193.900 C 387.069 194.780,387.104 195.115,387.147 194.645 C 387.189 194.174,387.188 193.454,387.145 193.045 C 387.102 192.635,387.068 193.020,387.069 193.900 M12.870 206.200 C 12.870 207.135,12.904 207.518,12.946 207.050 C 12.989 206.582,12.989 205.818,12.946 205.350 C 12.904 204.882,12.870 205.265,12.870 206.200 M387.069 206.100 C 387.069 206.980,387.104 207.315,387.147 206.845 C 387.189 206.374,387.188 205.654,387.145 205.245 C 387.102 204.835,387.068 205.220,387.069 206.100 M13.057 210.700 C 13.059 211.250,13.098 211.451,13.144 211.147 C 13.189 210.843,13.188 210.393,13.141 210.147 C 13.093 209.901,13.056 210.150,13.057 210.700 M386.857 210.700 C 386.859 211.250,386.898 211.451,386.944 211.147 C 386.989 210.843,386.988 210.393,386.941 210.147 C 386.893 209.901,386.856 210.150,386.857 210.700 M386.654 213.800 C 386.654 214.295,386.693 214.498,386.741 214.250 C 386.789 214.003,386.789 213.597,386.741 213.350 C 386.693 213.103,386.654 213.305,386.654 213.800 M13.250 213.900 C 13.253 214.340,13.294 214.496,13.341 214.248 C 13.389 213.999,13.387 213.639,13.337 213.448 C 13.287 213.256,13.248 213.460,13.250 213.900 M13.446 216.200 C 13.446 216.585,13.488 216.743,13.538 216.550 C 13.588 216.357,13.588 216.043,13.538 215.850 C 13.488 215.657,13.446 215.815,13.446 216.200 M386.446 216.400 C 386.446 216.785,386.488 216.943,386.538 216.750 C 386.588 216.558,386.588 216.243,386.538 216.050 C 386.488 215.857,386.446 216.015,386.446 216.400 M63.392 328.050 C 63.882 328.572,64.310 329.000,64.342 329.000 C 64.492 329.000,64.333 328.820,63.450 327.992 L 62.500 327.100 63.392 328.050 M336.400 328.100 C 335.914 328.595,335.562 329.000,335.617 329.000 C 335.672 329.000,336.114 328.595,336.600 328.100 C 337.086 327.605,337.438 327.200,337.383 327.200 C 337.328 327.200,336.886 327.605,336.400 328.100 M71.792 336.450 C 72.282 336.973,72.710 337.400,72.742 337.400 C 72.892 337.400,72.733 337.220,71.850 336.392 L 70.900 335.500 71.792 336.450 M328.000 336.500 C 327.514 336.995,327.162 337.400,327.217 337.400 C 327.272 337.400,327.714 336.995,328.200 336.500 C 328.686 336.005,329.038 335.600,328.983 335.600 C 328.928 335.600,328.486 336.005,328.000 336.500 M183.250 386.538 C 183.442 386.588,183.758 386.588,183.950 386.538 C 184.143 386.488,183.985 386.446,183.600 386.446 C 183.215 386.446,183.058 386.488,183.250 386.538 M216.050 386.538 C 216.243 386.588,216.558 386.588,216.750 386.538 C 216.943 386.488,216.785 386.446,216.400 386.446 C 216.015 386.446,215.857 386.488,216.050 386.538 M185.750 386.741 C 185.998 386.789,186.403 386.789,186.650 386.741 C 186.898 386.693,186.695 386.654,186.200 386.654 C 185.705 386.654,185.503 386.693,185.750 386.741 M213.350 386.741 C 213.597 386.789,214.003 386.789,214.250 386.741 C 214.498 386.693,214.295 386.654,213.800 386.654 C 213.305 386.654,213.103 386.693,213.350 386.741 M188.853 386.944 C 189.157 386.989,189.607 386.988,189.853 386.941 C 190.099 386.893,189.850 386.856,189.300 386.857 C 188.750 386.859,188.549 386.898,188.853 386.944 M210.253 386.944 C 210.557 386.989,211.007 386.988,211.253 386.941 C 211.499 386.893,211.250 386.856,210.700 386.857 C 210.150 386.859,209.949 386.898,210.253 386.944 M193.050 387.146 C 193.463 387.189,194.138 387.189,194.550 387.146 C 194.963 387.103,194.625 387.067,193.800 387.067 C 192.975 387.067,192.638 387.103,193.050 387.146 M205.450 387.146 C 205.863 387.189,206.538 387.189,206.950 387.146 C 207.363 387.103,207.025 387.067,206.200 387.067 C 205.375 387.067,205.038 387.103,205.450 387.146 " stroke="none" fill="#999999" fill-rule="evenodd"></path><path id="path4" d="M191.900 13.013 C 82.882 17.858,1.115 114.304,14.210 222.600 C 26.517 324.373,118.945 397.438,220.900 385.989 C 323.513 374.467,397.514 281.729,385.989 179.100 C 375.021 81.427,289.978 8.653,191.900 13.013 " stroke="none" fill="#d3d3d3" fill-rule="evenodd"></path></g></svg>